<svg width="32" height="32" viewBox="0 0 32 32" fill="none" xmlns="http://www.w3.org/2000/svg">
<path d="M16.0288 0.119966C7.20978 0.119966 0.0584412 7.3919 0.0584412 16.363C0.0584412 23.5397 4.63444 29.6284 10.98 31.7762C11.7781 31.9266 12.0711 31.4239 12.0711 30.9948C12.0711 30.6075 12.0563 29.3279 12.0494 27.9707C7.60647 28.9533 6.66895 26.0542 6.66895 26.0542C5.94247 24.1767 4.89573 23.6774 4.89573 23.6774C3.44674 22.6693 5.00495 22.69 5.00495 22.69C6.60866 22.8043 7.45309 24.3639 7.45309 24.3639C8.87748 26.8471 11.1892 26.1292 12.1005 25.7142C12.2438 24.6646 12.6577 23.9475 13.1144 23.5421C9.5672 23.1314 5.83828 21.7386 5.83828 15.5146C5.83828 13.7412 6.46214 12.2922 7.48376 11.1547C7.31795 10.7453 6.7713 9.09348 7.63847 6.85609C7.63847 6.85609 8.97957 6.41953 12.0315 8.52109C13.3054 8.16119 14.6716 7.9807 16.0288 7.97452C17.386 7.9807 18.7533 8.16119 20.0296 8.52109C23.0778 6.41953 24.4171 6.85609 24.4171 6.85609C25.2863 9.09348 24.7394 10.7453 24.5736 11.1547C25.5976 12.2922 26.2173 13.7412 26.2173 15.5146C26.2173 21.7534 22.4812 23.1271 18.925 23.5292C19.4978 24.0333 20.0082 25.0218 20.0082 26.5373C20.0082 28.7104 19.9897 30.4596 19.9897 30.9948C19.9897 31.4271 20.2772 31.9336 21.0867 31.7741C27.4288 29.6238 31.9989 23.5373 31.9989 16.363C31.9989 7.3919 24.8487 0.119966 16.0288 0.119966Z" fill="black"/>
<path d="M6.10723 23.4415C6.07205 23.5225 5.94723 23.5464 5.83351 23.491C5.71767 23.438 5.65262 23.328 5.69017 23.2471C5.72455 23.1639 5.84964 23.1411 5.96521 23.1962C6.08131 23.2495 6.14743 23.3606 6.10723 23.4415Z" fill="black"/>
<path d="M6.75411 24.1753C6.67795 24.2471 6.52906 24.2138 6.42803 24.1003C6.32357 23.987 6.304 23.8356 6.38122 23.7627C6.45977 23.6909 6.60416 23.7245 6.70889 23.8377C6.81335 23.9523 6.83372 24.1027 6.75411 24.1753Z" fill="black"/>
<path d="M7.3838 25.1108C7.28595 25.18 7.12595 25.1151 7.02704 24.9707C6.92919 24.8263 6.92919 24.653 7.02916 24.5836C7.12833 24.5142 7.28595 24.5766 7.38619 24.72C7.48377 24.8666 7.48377 25.0401 7.3838 25.1108Z" fill="black"/>
<path d="M8.24647 26.0146C8.15894 26.1128 7.97249 26.0864 7.83603 25.9525C7.69639 25.8215 7.65751 25.6356 7.74531 25.5374C7.83391 25.439 8.02141 25.4667 8.15894 25.5996C8.29751 25.7303 8.33983 25.9175 8.24647 26.0146Z" fill="black"/>
<path d="M9.43655 26.5394C9.39794 26.6666 9.21837 26.7245 9.03747 26.6704C8.85684 26.6147 8.73863 26.4657 8.77513 26.3371C8.81268 26.2091 8.99304 26.1488 9.17526 26.2067C9.35562 26.2621 9.4741 26.41 9.43655 26.5394Z" fill="black"/>
<path d="M10.7435 26.6368C10.748 26.7707 10.5946 26.8818 10.4048 26.884C10.2138 26.8885 10.0594 26.7801 10.0573 26.6483C10.0573 26.513 10.2072 26.403 10.3981 26.3998C10.588 26.396 10.7435 26.5036 10.7435 26.6368Z" fill="black"/>
<path d="M11.9598 26.4262C11.9825 26.5569 11.8506 26.6911 11.662 26.7266C11.4766 26.7613 11.305 26.6806 11.2815 26.551C11.2584 26.417 11.3928 26.2828 11.5779 26.2481C11.7667 26.2147 11.9357 26.2933 11.9598 26.4262Z" fill="black"/>
</svg>
